<mxfile host="app.diagrams.net" modified="2023-05-26T18:51:45.980Z" agent="Mozilla/5.0 (Macintosh; Intel Mac OS X 10_15_7) AppleWebKit/605.1.15 (KHTML, like Gecko) Version/16.5 Safari/605.1.15" etag="vR4FJxEJDxBdnERHJcqs" version="21.3.4" type="device">
  <diagram id="FPafG5A2Ey5tNKXvaF-u" name="Page-1">
    <mxGraphModel dx="628" dy="708" grid="1" gridSize="5" guides="1" tooltips="1" connect="1" arrows="1" fold="1" page="0" pageScale="1" pageWidth="850" pageHeight="1100" math="0" shadow="0">
      <root>
        <mxCell id="0" />
        <mxCell id="1" parent="0" />
        <mxCell id="zhKAt6lQkJZW9FpIHxW3-6" value="&lt;font style=&quot;font-size: 16px;&quot; face=&quot;LMRoman10-Regular&quot;&gt;f1&lt;/font&gt;" style="rounded=0;whiteSpace=wrap;html=1;spacingTop=-4;" parent="1" vertex="1">
          <mxGeometry x="200" y="420" width="120" height="20" as="geometry" />
        </mxCell>
        <mxCell id="zhKAt6lQkJZW9FpIHxW3-7" value="&lt;font style=&quot;font-size: 16px;&quot; face=&quot;LMRoman10-Regular&quot;&gt;return address&lt;/font&gt;" style="rounded=0;whiteSpace=wrap;html=1;spacingTop=-4;" parent="1" vertex="1">
          <mxGeometry x="200" y="400" width="120" height="20" as="geometry" />
        </mxCell>
        <mxCell id="zhKAt6lQkJZW9FpIHxW3-11" value="" style="rounded=0;whiteSpace=wrap;html=1;fillStyle=hatch;fillColor=#808080;strokeWidth=1;" parent="1" vertex="1">
          <mxGeometry x="200" y="440" width="120" height="60" as="geometry" />
        </mxCell>
        <mxCell id="zhKAt6lQkJZW9FpIHxW3-12" value="&lt;b&gt;Call Stack&lt;br&gt;&lt;/b&gt;" style="text;html=1;strokeColor=none;fillColor=none;align=center;verticalAlign=middle;whiteSpace=wrap;rounded=0;fontFamily=LMRoman10-Regular;fontSize=16;fontColor=default;" parent="1" vertex="1">
          <mxGeometry x="200" y="290" width="120" height="30" as="geometry" />
        </mxCell>
        <mxCell id="GclQnIrT8cpe1TwirhLH-1" value="&lt;font style=&quot;font-size: 16px;&quot; face=&quot;LMRoman10-Regular&quot;&gt;f2&lt;/font&gt;" style="rounded=0;whiteSpace=wrap;html=1;spacingTop=-4;" parent="1" vertex="1">
          <mxGeometry x="200" y="500" width="120" height="20" as="geometry" />
        </mxCell>
        <mxCell id="GclQnIrT8cpe1TwirhLH-2" value="&lt;font style=&quot;font-size: 16px;&quot; face=&quot;LMRoman10-Regular&quot;&gt;g1&lt;br&gt;&lt;/font&gt;" style="rounded=0;whiteSpace=wrap;html=1;spacingBottom=0;spacingTop=-4;" parent="1" vertex="1">
          <mxGeometry x="200" y="380" width="120" height="20" as="geometry" />
        </mxCell>
        <mxCell id="GclQnIrT8cpe1TwirhLH-3" value="&lt;font style=&quot;font-size: 16px;&quot; face=&quot;LMRoman10-Regular&quot;&gt;return address&lt;/font&gt;" style="rounded=0;whiteSpace=wrap;html=1;spacingTop=-4;" parent="1" vertex="1">
          <mxGeometry x="200" y="360" width="120" height="20" as="geometry" />
        </mxCell>
        <mxCell id="GclQnIrT8cpe1TwirhLH-17" style="edgeStyle=orthogonalEdgeStyle;rounded=0;orthogonalLoop=1;jettySize=auto;html=1;exitX=1;exitY=0;exitDx=0;exitDy=0;dashed=1;dashPattern=1 2;endArrow=none;endFill=0;" parent="1" source="GclQnIrT8cpe1TwirhLH-4" edge="1">
          <mxGeometry relative="1" as="geometry">
            <mxPoint x="420" y="340.4" as="targetPoint" />
            <Array as="points">
              <mxPoint x="350" y="340" />
              <mxPoint x="350" y="340" />
            </Array>
          </mxGeometry>
        </mxCell>
        <mxCell id="GclQnIrT8cpe1TwirhLH-4" value="&lt;font style=&quot;font-size: 16px;&quot; face=&quot;LMRoman10-Regular&quot;&gt;return address&lt;/font&gt;" style="rounded=0;whiteSpace=wrap;html=1;spacingTop=-4;strokeWidth=1;" parent="1" vertex="1">
          <mxGeometry x="200" y="340" width="120" height="20" as="geometry" />
        </mxCell>
        <mxCell id="GclQnIrT8cpe1TwirhLH-16" style="edgeStyle=orthogonalEdgeStyle;rounded=0;orthogonalLoop=1;jettySize=auto;html=1;exitX=1;exitY=0;exitDx=0;exitDy=0;dashed=1;dashPattern=1 2;endArrow=none;endFill=0;" parent="1" source="GclQnIrT8cpe1TwirhLH-5" edge="1">
          <mxGeometry relative="1" as="geometry">
            <mxPoint x="420" y="360.4" as="targetPoint" />
            <Array as="points">
              <mxPoint x="340" y="360" />
              <mxPoint x="340" y="360" />
            </Array>
          </mxGeometry>
        </mxCell>
        <mxCell id="GclQnIrT8cpe1TwirhLH-5" value="" style="rounded=0;whiteSpace=wrap;html=1;fillColor=none;strokeWidth=2;" parent="1" vertex="1">
          <mxGeometry x="200.5" y="360.5" width="120" height="40" as="geometry" />
        </mxCell>
        <mxCell id="GclQnIrT8cpe1TwirhLH-18" style="edgeStyle=orthogonalEdgeStyle;rounded=0;orthogonalLoop=1;jettySize=auto;html=1;exitX=1;exitY=0;exitDx=0;exitDy=0;dashed=1;dashPattern=1 2;endArrow=none;endFill=0;" parent="1" source="GclQnIrT8cpe1TwirhLH-6" edge="1">
          <mxGeometry relative="1" as="geometry">
            <mxPoint x="420" y="400.4" as="targetPoint" />
            <Array as="points">
              <mxPoint x="350" y="400" />
              <mxPoint x="350" y="400" />
            </Array>
          </mxGeometry>
        </mxCell>
        <mxCell id="GclQnIrT8cpe1TwirhLH-19" style="edgeStyle=orthogonalEdgeStyle;rounded=0;orthogonalLoop=1;jettySize=auto;html=1;exitX=1;exitY=1;exitDx=0;exitDy=0;endArrow=none;endFill=0;dashed=1;dashPattern=1 2;" parent="1" source="GclQnIrT8cpe1TwirhLH-6" edge="1">
          <mxGeometry relative="1" as="geometry">
            <mxPoint x="420" y="520.4" as="targetPoint" />
            <Array as="points">
              <mxPoint x="350" y="520" />
              <mxPoint x="350" y="520" />
            </Array>
          </mxGeometry>
        </mxCell>
        <mxCell id="GclQnIrT8cpe1TwirhLH-6" value="" style="rounded=0;whiteSpace=wrap;html=1;fillColor=none;strokeWidth=2;" parent="1" vertex="1">
          <mxGeometry x="200.5" y="400.5" width="120" height="120" as="geometry" />
        </mxCell>
        <mxCell id="GclQnIrT8cpe1TwirhLH-12" value="&lt;span&gt;Frame of h()&lt;br&gt;&lt;/span&gt;" style="text;html=1;strokeColor=none;fillColor=none;align=center;verticalAlign=middle;whiteSpace=wrap;rounded=0;fontFamily=LMRoman10-Regular;fontSize=16;fontColor=default;fontStyle=1" parent="1" vertex="1">
          <mxGeometry x="320" y="335" width="100" height="30" as="geometry" />
        </mxCell>
        <mxCell id="GclQnIrT8cpe1TwirhLH-13" value="&lt;b&gt;Frame of g()&lt;br&gt;&lt;/b&gt;" style="text;html=1;strokeColor=none;fillColor=none;align=center;verticalAlign=middle;whiteSpace=wrap;rounded=0;fontFamily=LMRoman10-Regular;fontSize=16;fontColor=default;" parent="1" vertex="1">
          <mxGeometry x="320" y="365" width="100" height="30" as="geometry" />
        </mxCell>
        <mxCell id="GclQnIrT8cpe1TwirhLH-14" value="&lt;b&gt;Frame of f()&lt;br&gt;&lt;/b&gt;" style="text;html=1;strokeColor=none;fillColor=none;align=center;verticalAlign=middle;whiteSpace=wrap;rounded=0;fontFamily=LMRoman10-Regular;fontSize=16;fontColor=default;" parent="1" vertex="1">
          <mxGeometry x="320" y="445" width="99.5" height="30" as="geometry" />
        </mxCell>
        <mxCell id="GclQnIrT8cpe1TwirhLH-20" value="" style="rounded=0;whiteSpace=wrap;html=1;strokeWidth=2;fillColor=none;" parent="1" vertex="1">
          <mxGeometry x="200.5" y="340.5" width="120" height="20" as="geometry" />
        </mxCell>
        <mxCell id="R7hXlZzlDTyVDQBKtuFt-1" value="" style="endArrow=classic;html=1;rounded=0;" edge="1" parent="1">
          <mxGeometry width="50" height="50" relative="1" as="geometry">
            <mxPoint x="185" y="320.5" as="sourcePoint" />
            <mxPoint x="185" y="520" as="targetPoint" />
          </mxGeometry>
        </mxCell>
        <mxCell id="R7hXlZzlDTyVDQBKtuFt-2" value="…" style="rounded=0;whiteSpace=wrap;html=1;spacingTop=-4;strokeWidth=1;" vertex="1" parent="1">
          <mxGeometry x="200" y="320" width="120" height="20" as="geometry" />
        </mxCell>
        <mxCell id="R7hXlZzlDTyVDQBKtuFt-4" style="edgeStyle=orthogonalEdgeStyle;rounded=0;orthogonalLoop=1;jettySize=auto;html=1;exitX=1;exitY=0;exitDx=0;exitDy=0;dashed=1;dashPattern=1 2;endArrow=none;endFill=0;" edge="1" parent="1" source="R7hXlZzlDTyVDQBKtuFt-3">
          <mxGeometry relative="1" as="geometry">
            <mxPoint x="420" y="320.2758620689656" as="targetPoint" />
            <Array as="points">
              <mxPoint x="345" y="320" />
              <mxPoint x="345" y="320" />
            </Array>
          </mxGeometry>
        </mxCell>
        <mxCell id="R7hXlZzlDTyVDQBKtuFt-3" value="" style="rounded=0;whiteSpace=wrap;html=1;strokeWidth=2;fillColor=none;" vertex="1" parent="1">
          <mxGeometry x="200.5" y="320.5" width="120" height="20" as="geometry" />
        </mxCell>
        <mxCell id="R7hXlZzlDTyVDQBKtuFt-5" value="…&lt;span&gt;&lt;br&gt;&lt;/span&gt;" style="text;html=1;strokeColor=none;fillColor=none;align=center;verticalAlign=middle;whiteSpace=wrap;rounded=0;fontFamily=LMRoman10-Regular;fontSize=16;fontColor=default;fontStyle=1" vertex="1" parent="1">
          <mxGeometry x="320" y="315" width="100" height="30" as="geometry" />
        </mxCell>
      </root>
    </mxGraphModel>
  </diagram>
</mxfile>
